# xmcd
#
# Track frame offsets:
#	150
#	16277
#	30480
#	42345
#	57346
#	73430
#	87091
#	105387
#	122299
#	133215
#	146871
#	158036
#	171918
#	190119
#	205169
#
# Disc length: 2908
#
# Revision: 2
# Processed by: cddbd v1.5.1PL0 Copyright (c) Steve Scherf et al.
# Submitted via: CDex 1.40Beta9
# Normalized: r1:TDELIM( - )
#
DISCID=d00b5a0f
DTITLE=Country Now - CD 1
DYEAR=1998
DGENRE=Country
TTITLE0=John Berry - Kiss me in the car
TTITLE1=Suzy Bogguss - Drive South
TTITLE2=Emilio - I'd love you to love me
TTITLE3=Billy Dean - Somewhere in my broken heart
TTITLE4=Lee Ann Womack - The fool
TTITLE5=George Strait - Easy come easy go
TTITLE6=Tanya Tucker - Little things
TTITLE7=Vince Gill - Don't let our love start slippin' away
TTITLE8=Mel McDaniel - Real good feel good song
TTITLE9=George Ducas - Long trail of tears
TTITLE10=Patty Loveless - Chains
TTITLE11=Mark Chesnutt - Brother jukebox
TTITLE12=Trace Adkins - (This ain't no) thinkin' thing
TTITLE13=Steve Wayne Horton - Roll over
TTITLE14=David Lee Murphy - All lit up in love
EXTD=YEAR: 1998 ID3G: 2
EXTT0=
EXTT1=
EXTT2=
EXTT3=
EXTT4=
EXTT5=
EXTT6=
EXTT7=
EXTT8=
EXTT9=
EXTT10=
EXTT11=
EXTT12=
EXTT13=
EXTT14=
PLAYORDER=
